<!DOCTYPE svg PUBLIC "-//W3C//DTD SVG 1.1//EN" "http://www.w3.org/Graphics/SVG/1.1/DTD/svg11.dtd">
<svg xmlns="http://www.w3.org/2000/svg" viewBox="0 0 1080 1080">
<path fill="#f4b011" stroke="#f4b011" d="M266.161 371.076c-27.665 3.589-50.511 24.399-57.139 52.048-2.814 11.737-3.171 219.094-.401 232.519 1.625 7.873 6.634 19.836 10.119 24.167l1.859 2.309 8.61-19.309L246.513 624c4.781-10.725 18.286-40.875 30.011-67 24.685-55.005 55.311-123.513 58.073-129.905 1.046-2.423 7.125-15.923 13.507-30 6.383-14.077 11.418-25.932 11.191-26.345-.556-1.01-85.118-.714-93.134.326m166.512-.35c-2.118 3.451.755 11.378 18.042 49.774 41.865 92.99 51.579 115.143 51.598 117.676.011 1.49-6.699 16.031-15.146 32.821C478.825 587.577 472 602.019 472 603.09c0 1.881.779 1.938 22.75 1.679l22.75-.269-.325-2.987c-.467-4.291-1.178-4.481-16.866-4.498-7.805-.008-14.433-.407-14.729-.886-.296-.479 3.052-7.98 7.441-16.67 4.388-8.69 7.979-16.167 7.979-16.616 0-1.115 5.34-8.758 6.152-8.805.359-.021 1.14 1.199 1.736 2.712.596 1.513 1.509 3.425 2.031 4.25.521.825 5.045 10.05 10.054 20.5 5.008 10.45 9.623 19.9 10.255 21 .631 1.1 2.142 3.8 3.358 6 4.946 8.955 42.533 94.645 42.222 96.258-.316 1.641-7.12 1.771-116.822 2.242-116.285.499-120.986.642-120.986 3.681 0 .336 100.238.293 222.75-.095 215.158-.682 223.032-.772 231.035-2.635 26.669-6.212 46.286-26.503 51.676-53.451 2.613-13.066 1.835-224.113-.861-233.5-6.529-22.732-22.736-39.537-45.6-47.282l-9.5-3.218-177.676-.274c-97.722-.151-177.89.074-178.151.5m-41.857 74.98c-.865.987-14.284 31.044-29.82 66.794-56.565 130.169-83.518 190.447-86.189 192.75-1.827 1.576-4.828 1.752-30.168 1.772-26.388.021-28.295.144-30.639 1.978l-2.5 1.956 19.5.02c10.725.012 38.675-.275 62.11-.638l42.611-.659 12.389-25.538c6.815-14.046 13.326-27.361 14.471-29.59l2.08-4.051 59.378-.258c32.657-.142 59.764-.645 60.236-1.117.48-.48-.015-2.799-1.119-5.242-2.602-5.765-6.888-15.616-18.652-42.883-5.34-12.375-10.301-23.85-11.025-25.5-.724-1.65-3.603-8.288-6.398-14.75-2.794-6.462-7.331-16.925-10.081-23.25-2.75-6.325-7.288-16.788-10.084-23.25-4.883-11.284-13.674-31.479-16.433-37.75-.726-1.65-3.619-8.4-6.429-15-7.899-18.555-9.324-20.256-13.238-15.794" fill-rule="evenodd"/>
<path fill="#fbfbfb" stroke="#fbfbfb" d="M262.324 372.045c-25.341 5.01-45.671 24.216-53.015 50.083-1.696 5.976-1.809 13.309-1.809 117.872v111.5l2.263 7.809c2.396 8.265 5.775 15.664 8.94 19.573l1.914 2.363 2.598-5.872c5.241-11.849 45.508-101.974 62.27-139.373 9.49-21.175 25.701-57.4 36.025-80.5 10.323-23.1 22.981-51.382 28.13-62.85 5.148-11.467 9.36-21.03 9.36-21.25 0-.783-92.575-.166-96.676.645M433 371.393c0 .465 4.376 10.34 29.514 66.607 34.009 76.121 42.394 94.747 47.496 105.5 2.871 6.05 7.418 15.627 10.105 21.283 2.687 5.656 4.895 10.606 4.907 11 .012.394.902 1.842 1.978 3.217s1.966 3.227 1.978 4.115c.012.888.922 2.759 2.022 4.158 1.1 1.398 2 3.189 2 3.98 0 .79.9 2.252 2 3.247 1.364 1.234 2 3.08 2 5.802 0 4.277.23 4.825 29.9 71.198l16.986 38h101.807c95.877 0 102.186-.107 108.307-1.842 23.018-6.523 40.488-22.825 47.857-44.658 4.007-11.873 4.271-20.648 3.91-130l-.345-104.5-2.279-7.484c-6.777-22.251-22.298-38.636-44.337-46.807L791.5 371.5l-179.25-.266c-98.588-.146-179.25-.075-179.25.159m-39.22 77.368c-.946 2.057-4.245 9.589-7.331 16.739-3.086 7.15-6.198 14.35-6.916 16l-6.419 14.75a20531.668 20531.668 0 0 0-20.195 46.5c-2.795 6.462-5.684 13.1-6.419 14.75-3.585 8.041-10.398 23.509-16.516 37.5-20.751 47.452-47.752 108.042-49.976 112.142-1.496 2.76-.546 2.858 27.727 2.858h27.403l14.626-30 14.627-30h59.805c53.181 0 59.804-.171 59.804-1.54 0-1.343-9.085-22.923-23.561-55.96-13.295-30.344-56.261-129.425-59.734-137.75-4.62-11.071-4.596-11.05-6.925-5.989m1.619 64.877c-1.156 1.176-2.374 3.82-2.707 5.874-.334 2.055-1.266 4.468-2.071 5.362-.806.894-1.769 2.845-2.141 4.335-.372 1.49-1.311 3.236-2.087 3.88-.776.644-1.686 2.892-2.022 4.995-.337 2.103-1.458 4.589-2.491 5.525-1.034.936-1.88 2.911-1.88 4.391s-.9 3.505-2 4.5c-1.1.995-2 2.805-2 4.02 0 1.216-.9 3.354-2 4.753-1.1 1.398-2 3.034-2 3.635 0 1.585 1.691 1.34 2.335-.338.302-.786 2.585-1.735 5.075-2.109 2.489-.373 5.035-1.293 5.658-2.043.623-.751 2.775-1.667 4.782-2.036 2.008-.37 4.723-1.507 6.035-2.527 1.312-1.02 3.283-1.855 4.382-1.855 1.098 0 3.4-.851 5.115-1.892 1.715-1.041 4.64-2.215 6.501-2.609 1.861-.394 2.941-1.005 2.4-1.358-1.41-.919-3.283-4.724-3.283-6.668 0-.911-.9-2.802-2-4.2-1.1-1.399-2-3.537-2-4.753 0-1.215-.846-2.975-1.88-3.911-1.033-.936-2.158-3.443-2.498-5.571-.34-2.129-1.149-4.047-1.797-4.263-.647-.216-1.661-1.941-2.251-3.834L397.5 511.5l-2.101 2.138m178.295 26.094c-2.093.217-4.055 1.044-4.359 1.837-.304.793-2.304 1.722-4.444 2.064-2.378.381-3.891 1.169-3.891 2.026 0 .772-.788 1.694-1.75 2.048-2.335.859-5.94 4.741-6.738 7.255-.354 1.114-1.401 2.785-2.328 3.713-2.422 2.425-2.488 22.9-.08 24.66.883.645 1.958 2.296 2.39 3.669 1.04 3.308 7.133 8.996 9.636 8.996 1.094 0 1.71-.45 1.37-1-.34-.55-1.276-1-2.08-1-.805 0-1.975-1.125-2.602-2.5-.626-1.375-1.706-2.5-2.399-2.5-.693 0-1.567-1.396-1.941-3.102-.375-1.706-1.536-3.956-2.58-5-3.165-3.165-2.186-20.898 1.154-20.898.402 0 .989-1.013 1.305-2.25.315-1.237 1.738-3.375 3.162-4.75s3.577-3.45 4.785-4.611c1.208-1.161 3.321-2.434 4.696-2.83 1.375-.395 4.023-1.407 5.884-2.249 2.269-1.027 5.317-1.391 9.25-1.107 4.088.296 5.866.066 5.866-.758 0-1.129-5.833-2.598-9-2.266-.825.087-3.213.335-5.306.553m193.802.418c-1 2.605-.04 59.85 1.004 59.885 1.649.054 2.442-9.329 2.729-32.284l.271-21.748 2.727-.002c1.881-.001 3.274.852 4.492 2.749.971 1.513 2.556 3.622 3.523 4.689.967 1.066 1.758 2.378 1.758 2.916 0 .537.69 1.69 1.534 2.561 6.853 7.074 10.577 11.676 11.084 13.699.329 1.312 1.225 2.385 1.99 2.385.766 0 1.392.609 1.392 1.354 0 .745 1.125 2.568 2.5 4.051 1.375 1.484 2.5 3.125 2.5 3.647 0 .521.499.948 1.108.948 1.646 0 .097-5.158-2.189-7.289-1.056-.984-1.919-2.446-1.919-3.25 0-.804-.603-1.461-1.339-1.461-.737 0-1.853-1.125-2.479-2.5-.627-1.375-1.578-2.5-2.115-2.5-.537 0-1.279-1.611-1.648-3.58s-1.252-3.802-1.961-4.075c-.709-.272-2.962-3.161-5.005-6.42-2.043-3.259-4.076-5.925-4.517-5.925-.44 0-1.101-.944-1.467-2.099-1.567-4.936-12.551-9.457-13.973-5.751m-145.229.6c.211.413 1.639 3.45 3.171 6.75 3.234 6.963 3.602 7.69 7.738 15.295 3.373 6.201 3.872 11.39 1.361 14.164-.832.92-1.803 3.121-2.157 4.892-.354 1.771-1.485 3.67-2.512 4.22-1.027.55-1.868 2.039-1.868 3.309 0 1.271-.853 3.082-1.895 4.025-2.089 1.89-3.189 5.841-2.113 7.583.818 1.322 6.008-5.056 6.008-7.382 0-.841.837-2.333 1.859-3.317 1.023-.984 2.148-2.995 2.502-4.469.353-1.474 1.24-3.279 1.972-4.01.731-.731 1.653-2.617 2.048-4.191.395-1.573 1.371-3.513 2.168-4.311 1.841-1.841 1.861-3.937.045-4.633-.773-.297-1.719-1.966-2.102-3.709-.382-1.743-1.55-4.024-2.594-5.068-1.044-1.044-1.898-3.037-1.898-4.429 0-1.393-.67-2.789-1.489-3.103-.819-.314-1.962-2.325-2.539-4.469-.577-2.143-1.451-3.897-1.943-3.897s-1.18-.9-1.529-2c-.355-1.118-1.513-2-2.626-2-1.096 0-1.819.337-1.607.75m45.921 2.21c-1.203 1.627-2.188 3.807-2.188 4.845 0 1.037-.848 2.653-1.885 3.591-1.037.938-2.14 2.979-2.451 4.535-.311 1.555-1.195 3.457-1.964 4.226-.769.769-1.951 3.073-2.627 5.121-.675 2.047-1.643 3.722-2.151 3.722-1.713 0-.937 4.676 1.078 6.5 1.1.995 2 2.879 2 4.186s.663 2.631 1.473 2.942c.81.311 1.767 2.133 2.126 4.048.359 1.916 1.24 3.709 1.957 3.984.718.275 1.762 1.814 2.322 3.42.56 1.606 1.439 2.92 1.953 2.92.515 0 1.171.9 1.459 2 .287 1.1 1.015 2 1.616 2 .602 0 1.094-.9 1.094-2 0-1.111-.667-2-1.5-2-.825 0-1.5-.752-1.5-1.671 0-1.952-5.827-14.258-7.604-16.059-2.907-2.946-2.707-8.974.517-15.592 1.698-3.485 3.087-7.04 3.087-7.9 0-.86.675-1.823 1.5-2.14.825-.316 1.5-1.42 1.5-2.454 0-1.033.9-2.916 2-4.184 1.1-1.268 2-2.65 2-3.071 0-.421.273-1.477.607-2.347 1.055-2.75-2.093-1.769-4.419 1.378M691.5 541c.34.55 1.041 1 1.559 1s.941-.45.941-1-.702-1-1.559-1-1.281.45-.941 1m51.75.496c-.687.781-1.25 1.889-1.25 2.462 0 .573-.807 1.849-1.793 2.835-.986.986-2.377 3.204-3.091 4.928-.715 1.724-1.933 3.379-2.708 3.676-.774.297-1.408 1.214-1.408 2.036 0 .823-.9 1.978-2 2.567-1.1.589-2 1.714-2 2.5s-.853 1.886-1.895 2.444c-1.042.557-2.369 2.373-2.948 4.035-1.651 4.737-8.226 4.485-9.986-.384-.677-1.872-1.893-3.658-2.701-3.968-.809-.31-1.47-1.238-1.47-2.06 0-.823-.848-1.951-1.885-2.505-1.037-.555-2.193-2.238-2.571-3.741-.377-1.502-1.553-3.34-2.615-4.083-1.061-.743-1.929-1.776-1.929-2.295 0-.519-.788-1.77-1.75-2.781-.962-1.011-2.286-2.698-2.941-3.75-1.109-1.779-1.195-1.731-1.25.692-.033 1.456 1.043 3.793 2.441 5.301 1.375 1.484 2.5 3.35 2.5 4.147 0 .796.353 1.448.784 1.448.432 0 1.634 1.462 2.672 3.25 1.038 1.788 2.485 3.61 3.216 4.05.73.44 1.328 1.436 1.328 2.215 0 .778.841 1.864 1.868 2.414 1.027.55 2.154 2.43 2.503 4.178.35 1.748 1.422 3.751 2.382 4.453 1.445 1.054 1.807 3.236 2.092 12.607.217 7.123.774 11.605 1.5 12.067 2.989 1.902 3.444.627 3.802-10.658.323-10.186.606-11.684 2.608-13.815 1.235-1.314 2.245-2.854 2.245-3.42 0-.567.9-1.846 2-2.841 1.1-.995 2-2.636 2-3.647 0-1.01.9-2.398 2-3.085 1.1-.687 2-1.863 2-2.614 0-1.335 2.019-4.099 8.149-11.154 5.145-5.921 6.394-9.008 3.627-8.962-1.252.021-2.838.677-3.526 1.458m79.55-.296c1.505 1.505 1.713 50.973.226 53.751-.535 1-2.142 2.112-3.571 2.471-4.229 1.061-2.242 3.052 3.374 3.38l5.171.303V540h-3.2c-2.489 0-2.933.267-2 1.2M589 543.842c0 .463 1.747 1.365 3.881 2.004 2.135.64 4.44 1.836 5.123 2.659 1.933 2.329 4.32 1.987 2.826-.405-.652-1.045-1.786-1.67-2.52-1.389-.861.331-1.132-.012-.765-.968.372-.968-.23-1.694-1.738-2.098-3.31-.886-6.807-.785-6.807.197m14 9.036c0 1.22.638 2.122 1.5 2.122.825 0 1.5-.395 1.5-.878 0-.482-.675-1.437-1.5-2.122-1.253-1.04-1.5-.896-1.5.878M415.549 560.8c-1.624.205-4.047 1.233-5.385 2.286-1.339 1.053-3.315 1.914-4.391 1.914-1.077 0-3.102.9-4.5 2-1.399 1.1-3.762 2-5.253 2-1.49 0-3.525.9-4.52 2-.995 1.1-2.616 2-3.602 2-.986 0-3.908 1.125-6.494 2.5s-5.514 2.5-6.507 2.5c-.994 0-2.931 1.125-4.306 2.5-1.957 1.957-2.145 2.5-.869 2.5.897 0 4.589 1.922 8.205 4.27 7.152 4.646 8.796 5.669 14.073 8.757 1.925 1.126 5.3 3.134 7.5 4.462 2.2 1.328 5.125 2.989 6.5 3.692 1.375.702 2.86 1.849 3.3 2.548.44.699 1.417 1.271 2.173 1.271.755 0 2.711 1.125 4.345 2.5s3.671 2.5 4.527 2.5c.855 0 1.915.627 2.355 1.392.44.766 2.488 2.093 4.55 2.949 2.063.856 3.75 2.03 3.75 2.608 0 .578.83 1.051 1.845 1.051 1.015 0 2.66.9 3.655 2 .995 1.1 2.415 2 3.155 2 .74 0 2.251.906 3.359 2.014 1.108 1.108 3.021 2.121 4.25 2.25 2.814.297 2.606-4.343-.364-8.119-1.045-1.328-1.9-3.193-1.9-4.145 0-.952-.863-2.827-1.918-4.168-1.055-1.341-2.224-4.071-2.598-6.066-.374-1.995-1.267-3.852-1.983-4.127-.716-.275-1.605-2.296-1.976-4.491s-1.273-4.221-2.005-4.502c-.732-.281-1.657-2.004-2.056-3.828-.399-1.825-1.566-4.391-2.594-5.703-1.029-1.312-1.87-3.394-1.87-4.627 0-1.234-.684-2.811-1.521-3.505-.836-.694-2.011-3.211-2.611-5.592-.6-2.382-1.715-4.849-2.479-5.483-.764-.634-1.389-1.746-1.389-2.471 0-1.748-.911-2.083-4.451-1.637M808.65 589c.823 1.65 1.925 3 2.448 3 .523 0 1.39 1.152 1.925 2.56.535 1.408 1.422 2.283 1.971 1.943 1.119-.691-1.476-6.503-2.903-6.503-.472 0-1.093-.9-1.381-2-.287-1.1-1.205-2-2.04-2-1.351 0-1.353.327-.02 3m-206.443 1.04c-1.004 1.608-.964 1.96.226 1.96 1.851 0 2.639-1.266 1.717-2.758-.495-.8-1.101-.551-1.943.798M359 594.757c0 1.085-.841 3.046-1.87 4.358-1.028 1.312-2.182 3.816-2.564 5.566-.382 1.749-1.294 3.678-2.026 4.286-.732.607-1.615 2.618-1.962 4.468s-1.265 3.89-2.04 4.534c-.775.643-1.713 2.601-2.085 4.35-.372 1.75-1.237 3.856-1.923 4.681-1.481 1.78-2.64 6-1.648 6 .382 0 2.46-.9 4.618-2 2.158-1.1 4.544-2 5.304-2 .759 0 2.525-.9 3.923-2 1.399-1.1 3.559-2 4.801-2s2.508-.65 2.812-1.445c.305-.794 2.266-1.754 4.357-2.133 2.092-.378 4.608-1.528 5.592-2.555.984-1.027 2.713-1.867 3.842-1.867 1.13 0 3.198-.9 4.596-2 1.399-1.1 3.532-2 4.741-2 1.209 0 2.503-.304 2.874-.676.887-.886-3.302-5.324-5.026-5.324-.735 0-2.106-.9-3.048-2-.942-1.1-2.489-2-3.439-2-.949 0-2.94-1.125-4.424-2.5-1.483-1.375-3.1-2.5-3.592-2.5-.491 0-2.113-.879-3.603-1.953-4.292-3.093-8.21-3.709-8.21-1.29m237.75-.539c-1.513.522-2.75 1.554-2.75 2.293 0 2.56-21.579 3.352-27.25 1.001-1.242-.515-1.75-.259-1.75.881 0 1.807 1.967 1.981 18.5 1.635 8.268-.172 10.358-.539 12.064-2.118 1.136-1.051 2.572-1.91 3.191-1.91 1.414 0 2.541-1.713 1.511-2.296-.421-.239-2.003-.007-3.516.514" fill-rule="evenodd"/>
<path fill="#3a3b36" stroke="#3a3b36" d="M262.5 372.518c-25.739 4.92-46.111 24.002-52.565 49.238-3.081 12.046-3.001 225.936.088 237.085 2.128 7.678 8.404 21.159 9.851 21.159.467 0 5.026-9.337 10.132-20.75s19.056-42.575 31.001-69.25c11.944-26.675 30.07-67.175 40.278-90a80942.81 80942.81 0 0 1 36.741-82c9.998-22.275 18.814-41.962 19.59-43.75l1.411-3.25-44.764.09c-32.896.067-46.619.445-51.763 1.428m174.47 7.232c2.101 4.813 8.756 19.775 14.789 33.25 6.033 13.475 19.311 43.175 29.507 66 21.553 48.25 22.835 50.968 34.665 73.5 8.338 15.88 13.964 26.981 15.458 30.5.351.825 2.025 3.975 3.722 7 4.333 7.726 6.279 14 4.341 14-.799 0-1.452.381-1.452.846 0 .665 39.643 89.94 45.029 101.404l1.292 2.75h101.18c96.716 0 101.512-.085 108.733-1.932 24.469-6.258 43.698-26.111 49.169-50.765 2.693-12.136 2.391-222.88-.335-233.537-5.15-20.135-17.556-35.585-35.568-44.294-16.496-7.976-3.052-7.472-199.383-7.472H433.15l3.82 8.75m-45.721 76c-2.287 5.363-6.91 16.05-10.275 23.75-3.365 7.7-11.995 27.5-19.179 44-31.352 72.012-54.354 124.194-68.765 156-6.729 14.85-12.461 27.563-12.739 28.25-.397.982 5.429 1.25 27.177 1.25h27.681l14.46-29.5 14.46-29.5h59.406c36.962 0 59.632-.363 60.002-.962.327-.529-2.083-7.167-5.355-14.75A39814.182 39814.182 0 0 0 461.997 597c-5.597-12.925-14.365-33.175-19.483-45a28887.632 28887.632 0 0 0-19.972-46 21556.028 21556.028 0 0 1-18.336-42.25c-4.218-9.762-7.924-17.75-8.235-17.75-.311 0-2.436 4.387-4.722 9.75m3.564 54.986c-1.424 1.52-2.903 3.889-3.288 5.264-.385 1.375-2.411 6.1-4.504 10.5-2.093 4.4-5.001 10.925-6.463 14.5-1.462 3.575-3.089 7.175-3.615 8-.525.825-1.235 2.175-1.576 3-.341.825-1.689 3.835-2.994 6.688-2.692 5.885-2.959 8.15-1.048 8.883 1.277.49 13.092-3.822 19.206-7.011 1.633-.851 3.656-1.55 4.496-1.554.841-.003 2.416-.62 3.5-1.371 1.085-.751 3.098-1.704 4.473-2.118 11.783-3.544 14.658-6.615 11.577-12.363-1.41-2.631-4.504-9.343-6.523-14.154-.577-1.375-1.478-3.175-2.001-4-.524-.825-2.176-4.425-3.672-8-3.819-9.131-4.419-9.627-7.568-6.264M576.5 537c-1.1.473-3.644.891-5.653.93-4.526.087-18.105 10.47-21.419 16.378-14.823 26.426 11.895 58.353 40.709 48.646 13.281-4.474 20.617-12.593 15.339-16.974-1.279-1.061-2.125-.662-5.25 2.477-14.706 14.77-38.805 9.984-46.131-9.161-2.698-7.048-2.64-8.913.516-16.796 1.791-4.475 3.595-7.196 5.75-8.672 1.726-1.183 3.849-3.021 4.716-4.086 5.736-7.039 31.613-3.925 34.723 4.179 1.731 4.511 8.486 7.104 9.772 3.751 3.192-8.317-23.295-24.873-33.072-20.672m168.77-.297c-2.375.459-6.27 4.714-6.27 6.849 0 .705-.337 1.431-.75 1.615-1.018.452-7.246 9.45-7.266 10.496-.008.461-2.033 3.084-4.5 5.83-2.466 2.747-4.485 5.222-4.486 5.5-.002.279-1.352.555-3 .613-1.649.059-2.998-.178-2.998-.527 0-.521-7.811-11.903-10.704-15.596-.438-.559-2.543-3.603-4.677-6.764-4.171-6.174-7.126-7.72-11.207-5.861-2.35 1.071-2.375 1.186-.677 3.056 3.094 3.406 4.265 4.982 4.265 5.739 0 .406 1.087 1.887 2.416 3.292 1.329 1.405 3.503 4.616 4.831 7.136 1.328 2.519 3.391 5.557 4.584 6.75 1.193 1.193 2.169 3.014 2.169 4.047 0 1.032.675 2.437 1.5 3.122s1.5 1.723 1.5 2.308c0 .585.904 2.025 2.008 3.201 1.517 1.614 2.093 3.832 2.355 9.064.19 3.81.622 7.602.96 8.427.337.825.74 3.525.895 6 .251 4.008.565 4.533 2.868 4.801 4.322.502 5.401-2.001 5.531-12.833.116-9.6 3.64-20.968 6.5-20.968.486 0 .883-.954.883-2.12 0-1.207 1.937-3.975 4.496-6.428 2.752-2.637 4.279-4.874 3.937-5.766-.334-.87 1.254-3.423 3.933-6.322 9.261-10.026 9.725-10.789 8.033-13.205-1.477-2.109-2.581-2.334-7.129-1.456m20.39 1.518c-1.665 2.664-2.203 55.326-.576 56.331.504.311.916 2.249.916 4.307 0 4.357 1.362 6.121 4.161 5.389 3.362-.88 3.839-4.522 3.839-29.313 0-17.192.32-23.935 1.135-23.935 1.886 0 5.738 4.806 8.948 11.164 1.912 3.788 3.513 5.821 4.334 5.506 1.269-.487 6.935 6.129 11.083 12.941 2.506 4.115 12.972 17.972 16.345 21.639 3.014 3.278 11.438 4.062 12.548 1.168.334-.87.607-15.62.607-32.778 0-30.017-.076-31.261-2.011-32.918-5.901-5.052-6.306-3.236-6.07 27.241.256 33.225.012 33.759-9.166 20.037-.919-1.375-3.478-4.975-5.686-8-9.086-12.447-10.404-14.6-10.25-16.75.088-1.237-.27-2.25-.796-2.25-.527 0-1.534-1.101-2.239-2.447-.705-1.345-1.732-2.468-2.282-2.495-.55-.027-1.321-1.288-1.714-2.803-2.329-8.98-19.463-17.895-23.126-12.034m-146.73.363c-1.034 1.246-1.057 1.939-.109 3.25.662.916 2.093 3.466 3.179 5.666 1.086 2.2 2.431 4.675 2.988 5.5.557.825 1.468 2.625 2.023 4 .556 1.375 2.14 4.3 3.521 6.5 3.794 6.045 3.896 6.505 2.118 9.516-.908 1.536-1.65 3.699-1.65 4.807 0 2.748-1.048 5.266-1.957 4.703-.893-.551-5.026 7.922-7.369 15.108-2.094 6.423-2.142 6.032.824 6.776 2.547.639 8.402-4.259 8.473-7.089.016-.648.611-1.773 1.321-2.5.711-.726 1.921-2.896 2.69-4.821.768-1.925 2.478-4.53 3.8-5.788 1.425-1.357 2.161-2.918 1.808-3.838-.341-.889.235-2.259 1.35-3.212 3.635-3.108 2.962-7.933-2.535-18.162a102.61 102.61 0 0 1-2.481-5c-.626-1.375-1.549-3.175-2.051-4-.502-.825-1.588-2.969-2.413-4.765-3.492-7.603-10.06-10.832-13.53-6.651m48.393.648c-2.551 2.808-6.877 11.459-7.775 15.549-.369 1.679-1.346 3.311-2.172 3.628-.827.317-1.196 1.073-.822 1.679.375.606-.364 2.517-1.643 4.246-2.427 3.283-3.835 13.666-1.853 13.666.542 0 1.512 1.237 2.157 2.75.644 1.513 1.703 3.425 2.352 4.25.649.825 1.704 3.133 2.344 5.129.64 1.996 2.049 4.43 3.131 5.409 1.081.979 2.431 3.504 2.998 5.611 1.11 4.123 5.348 6.459 6.966 3.841.436-.705 1.513-1.005 2.393-.667 2.784 1.068 1.861-3.198-1.772-8.189-1.856-2.549-3.709-5.759-4.119-7.134-.409-1.375-1.297-3.175-1.972-4-4.654-5.687-6.885-15.635-4.036-18 .825-.685 1.5-2.02 1.5-2.967 0-.948.87-2.51 1.933-3.472 1.062-.962 1.711-2.325 1.441-3.028-.27-.704.886-3.45 2.568-6.102s3.058-5.309 3.058-5.905c0-.595.912-1.863 2.028-2.818 2.839-2.431 1.193-5.217-3.259-5.517-2.441-.164-3.961.405-5.446 2.041M413.29 559.348c-2.316.634-4.769 1.715-5.45 2.402-.682.688-1.893 1.25-2.69 1.25-.798 0-3.745 1.075-6.55 2.39-10.736 5.03-14.345 6.61-15.1 6.61-.43 0-2.63.859-4.89 1.909-2.261 1.05-5.59 2.462-7.398 3.137-3.383 1.264-5.758 4.261-4.714 5.95.324.526 3.383 2.575 6.796 4.554 3.413 1.98 9.356 5.568 13.206 7.975 3.85 2.406 10.15 6.22 14 8.475 3.85 2.255 8.35 4.965 10 6.022A240.517 240.517 0 0 0 417 614a212.484 212.484 0 0 1 6.5 4c2.822 1.829 4.69 2.965 13.661 8.316 10.421 6.217 14.901 8.684 15.765 8.684 2.047 0 2.121-2.198.208-6.26C445.6 612.739 442 604.904 442 604.511c0-.25-2.05-4.855-4.556-10.233-6.733-14.45-7.113-15.275-9.891-21.466-1.404-3.129-2.553-6.029-2.553-6.446 0-1.505-5.298-8.364-6.386-8.268-.613.054-3.009.617-5.324 1.25m-55.732 32.539c-4.824 9.33-18.522 41.362-18.028 42.161.954 1.543 5.425 1.094 9.334-.939 2-1.04 6.561-3.135 10.136-4.657 5.864-2.495 10.535-4.609 29.25-13.234 3.163-1.457 5.75-3.149 5.75-3.759 0-1.485-3.899-5.062-7-6.423-1.375-.603-5.65-3.08-9.5-5.504-8.743-5.505-17.315-10.532-17.959-10.532-.269 0-1.162 1.299-1.983 2.887" fill-rule="evenodd"/>
<path fill="#050505" stroke="#050505" d="M259.322 373.502c-18.162 3.948-36.348 18.643-44.421 35.896-7.296 15.591-6.983 9.332-6.676 133.67L208.5 654.5l2.349 6.941c2.459 7.264 7.796 17.559 9.104 17.559.611 0 11.778-24.282 30.122-65.5.979-2.2 10.852-24.211 21.939-48.914 11.088-24.703 20.523-45.853 20.966-47 .655-1.696 9.87-22.297 34.481-77.086.741-1.65 5.868-13.156 11.392-25.568 5.524-12.413 12.092-26.981 14.595-32.375 2.504-5.394 4.552-9.976 4.552-10.182 0-1.167-93.01-.105-98.678 1.127m177.67 5.248c1.526 3.712 9.175 20.925 16.997 38.25 7.823 17.325 20.221 45 27.551 61.5 21.848 49.175 23.923 53.501 26.526 55.309 1.339.93 2.588 2.573 2.776 3.65.188 1.077 1.2 3.051 2.25 4.385 1.049 1.334 1.908 3.082 1.908 3.883 0 .802.9 2.602 2 4 1.1 1.399 2 3.312 2 4.253 0 .94.9 2.525 2 3.52 1.1.995 2 2.58 2 3.52 0 .941.9 2.854 2 4.253 1.1 1.398 2 3.198 2 4 0 .801.904 2.606 2.009 4.011 1.105 1.405 2.294 3.979 2.642 5.721.348 1.742 1.217 3.391 1.93 3.664.713.274 1.584 1.805 1.935 3.403s1.058 3.165 1.572 3.483c.514.317 2.305 3.508 3.98 7.09 3.103 6.637 2.902 9.355-.69 9.355-.758 0-1.378.187-1.378.416 0 .358 8.057 18.707 15.405 35.084 1.234 2.75 8.51 19.059 16.169 36.241l13.926 31.242 102.5-.242 102.5-.241 7-2.364c24.01-8.108 38.214-22.47 45.653-46.161l2.347-7.475v-225l-2.339-7.5c-7.524-24.126-27.619-42.656-50.932-46.965-3.719-.688-64.531-1.035-181.303-1.035H434.218l2.774 6.75M637 384.059c0 .582.45.781 1 .441s1-.816 1-1.059-.45-.441-1-.441-1 .477-1 1.059m3.63 6.088c-1.51.877-1.606 1.254-.5 1.955 2.023 1.281 2.428 1.109 2.595-1.102.083-1.1.066-1.986-.037-1.97-.103.017-1.029.52-2.058 1.117m-13.903 8.262c-1.666 1.264-1.638 1.381.456 1.929 1.226.32 2.437.376 2.69.122.253-.253-.051-.46-.675-.46s-.876-.675-.56-1.5c.699-1.82.388-1.835-1.911-.091m2.273 6.623c0 .533-.788.975-1.75.983-1.37.012-1.454.203-.387.879 1.151.729 1.151.948 0 1.406-.968.385-1.001.565-.113.621.688.043 1.282.867 1.32 1.829.06 1.496.195 1.46.93-.25.626-1.457.846-.643.811 3-.041 4.301-.154 4.58-.811 2-.712-2.798-.771-2.709-.882 1.309-.072 2.644.268 4.07.882 3.691.55-.34 1 .084 1 .941s-.397 1.559-.883 1.559-.756 3.038-.6 6.75c.156 3.712.406 12.15.556 18.75.242 10.66.345 11.274.927 5.5.634-6.291.66-6.185.827 3.309.095 5.395-.198 9.58-.651 9.3-.453-.28-.773 2.281-.712 5.691.092 5.092-.252 6.509-1.926 7.928-2.037 1.727-2.037 1.728.264 1.75 2.144.02 2.282.38 2 5.204l-.302 5.182-9.5 4.206c-5.225 2.314-9.837 4.006-10.25 3.759-.413-.246-.75-7.594-.75-16.329 0-15.527-.639-18.761-3.199-16.201-1.061 1.061-1.147 8.631-.291 25.5l.498 9.8-3.504 1.464-3.504 1.464v10.955c0 9.327-.223 10.87-1.5 10.38-.825-.317-1.5-1.219-1.5-2.004 0-1.098-.443-1.191-1.919-.401-1.056.565-2.068.679-2.25.253-.591-1.384-17.768-9.121-18.308-8.247-.453.733 12.22 7.388 22.227 11.672 2.81 1.203 3.261 1.898 3.331 5.128l.081 3.737 1.374-3c1.071-2.338 1.387-2.558 1.434-1 .05 1.662.225 1.746 1.03.5.692-1.071.974.046.985 3.905.015 5.342-.008 5.384-1.985 3.595-1.1-.995-2-1.46-2-1.033 0 .428-.695.201-1.546-.505-.85-.705-1.331-1.839-1.07-2.519.544-1.418-4.137-2.651-4.967-1.309-1.22 1.974-5.672.951-5.117-1.175.432-1.651.169-1.925-1.374-1.436-3.348 1.063-4.353-.588-1.763-2.899 1.308-1.168 1.942-1.787 1.408-1.374-.534.413-1.893.714-3.021.671-1.127-.043-1.487-.306-.8-.583.688-.278 1.25-1.112 1.25-1.854 0-1.919-5.843-1.569-7.006.419-1.249 2.138-1.26.462-.011-1.871.825-1.542.665-1.753-1-1.317-1.091.285-1.983 1.072-1.983 1.749 0 .692-1.36 1.27-3.103 1.32-3.983.113-4.23.425-3.383 4.278.501 2.284.944 2.815 1.542 1.848.503-.815.371-1.646-.33-2.079-2.09-1.292.037-2.028 2.323-.805 1.595.854 1.871 1.405.979 1.956-.882.546-.921.966-.135 1.452 2.722 1.682.767 2.544-4.393 1.937-3.823-.449-5.5-.299-5.5.491 0 .626-.761 1.138-1.691 1.138-1.587 0-1.587.077-.003 1.25 1.525 1.128 1.385 1.423-1.429 3.023l-3.119 1.773.465-2.432c.509-2.665-1.364-2.57-4.176.212-1.268 1.254-1.172 1.348.75.739 3.16-1.003 2.941 2.393-.354 5.488l-2.556 2.402.306-5.977c.306-5.965.317-5.983 4.712-8.2 3.431-1.731 4.026-2.367 2.692-2.879-.941-.361-1.474-1.278-1.183-2.037.803-2.092-5.285-4.33-8.217-3.021-1.75.781-2.963.638-5.053-.597-2.702-1.596-2.77-1.574-3.829 1.234-.594 1.572-.697 3.24-.23 3.707.467.467.924 3.541 1.016 6.832.205 7.376 1.275 9.107 3.966 6.416 1.063-1.063 2.336-1.933 2.828-1.933 1.121 0 2.045 8.144 1.079 9.5-.392.55-1.034 2.777-1.426 4.949-.392 2.172-1.351 4.859-2.131 5.972-2.057 2.938-1.761 10.466.583 14.84 1.1 2.053 2 4.633 2 5.735 0 1.102.9 2.904 2 4.004 1.1 1.1 2.014 2.337 2.032 2.75.106 2.523 11.177 11.25 14.272 11.25.933 0 1.696.433 1.696.961 0 3.269 23.095 4.007 26.722.854 1.494-1.299 3.049-1.916 8.278-3.283 3.186-.832 4.925-1.844 4.461-2.596-.313-.505.581-2.068 1.985-3.473 1.405-1.405 2.554-3.46 2.554-4.567 0-1.108.45-1.736 1-1.396.55.34 1 .141 1-.441s-.378-1.059-.839-1.059c-.462 0-1.353-1.125-1.979-2.5-1.731-3.8-5.479-3.274-10.237 1.438-2.188 2.166-4.983 4.254-6.211 4.64-1.229.386-3.802 1.539-5.719 2.562-4.517 2.41-9.611 2.361-14.276-.14-2.053-1.1-4.296-2.001-4.985-2.001-1.112-.001-3.291-1.898-8.918-7.764-2.771-2.889-3.967-12.754-2.393-19.735.743-3.3 1.405-5.55 1.469-5 .065.55.698-.125 1.408-1.5.788-1.526 1.983-2.378 3.067-2.187 1.647.29 7.607-4.838 7.617-6.554.003-.417 1.69-.844 3.75-.948 3.124-.158 3.431-.012 1.853.88-1.735.979-1.62 1.184 1.364 2.439 4.269 1.795 6.811 1.731 8.763-.221 1.351-1.351 1.378-1.725.178-2.484-1.142-.724-1.078-.897.338-.91.962-.008 1.75.435 1.75.985s.62 1 1.378 1c.757 0 1.937.675 2.622 1.5.685.825 1.844 1.5 2.577 1.5 1.624 0 6.438 4.652 5.64 5.45-1.459 1.459 3.258 3.232 6.595 2.48 5.437-1.227 6.556-6.495 2.383-11.223-1.465-1.66-1.438-1.741.361-1.095 1.069.384 2.541 1.162 3.27 1.729.945.734 1.577.626 2.196-.377 1.343-2.173 1.85.219 2.186 10.298.311 9.329-.354 10.597-4.817 9.185-1.688-.534-1.71-.481-.204.492 1.159.749 1.669 2.399 1.63 5.271-.046 3.299-.296 3.876-1.188 2.735-1.384-1.771-4.813-1.893-5.38-.191-.229.685.184 1.249.918 1.252.733.004 2.539.635 4.013 1.404 3.238 1.69 3.749.862 3.204-5.185-.209-2.324-.211-4.225-.004-4.225s2.017.686 4.022 1.523l3.646 1.524-.412 9.501c-.403 9.289-3.009 16.422-6.008 16.445-.48.004-.329.662.336 1.463 1.422 1.714.43 3.909-1.283 2.838-1.815-1.134-3.681-1.222-3.681-.174 0 .518.701 1.212 1.557 1.54.857.329 1.327 1.201 1.044 1.937-.282.736-.014 1.648.597 2.025.676.418.829.231.392-.476-.433-.701.185-1.497 1.558-2.005 2.628-.972 6.09-.335 5.282.973-.302.487.18.886 1.07.886.89 0 1.34-.45 1-1-.34-.55.084-1 .941-1s1.559.45 1.559 1 .765 1 1.7 1c1.322 0 1.433-.267.5-1.2-1.579-1.579-1.544-4.083.05-3.544.688.233 1.793-.742 2.458-2.167 1.043-2.237 1.19-1.434 1.078 5.911-.273 17.945 2.638 36.086 3.414 21.277.289-5.522.441-5.803 4.3-7.984 5.724-3.235 6.681-3.009 6.173 1.457-.234 2.063-.738 4.492-1.118 5.399-.38.907-.268 1.911.25 2.231.579.357.489 2.612-.232 5.851-.646 2.898-1.059 7.445-.918 10.105.219 4.134.045 4.66-1.199 3.627-1.253-1.039-1.456-.157-1.456 6.308 0 5.757.351 7.65 1.5 8.091.825.316 1.5 1.35 1.5 2.298 0 1.53-.163 1.506-1.468-.219-1.234-1.631-1.473-1.681-1.5-.313-.05 2.548 2.81 4.46 4.802 3.21 1.611-1.011 3.598-15.53 2.417-17.658-1.177-2.12-.716-34.948.498-35.414.759-.291 1.251-2.353 1.251-5.248 0-4.39-.218-4.815-2.75-5.366-4.203-.914-4.891-1.765-5.577-6.902-.698-5.224-.478-5.418 3.681-3.249 3.392 1.769 4.646 1.229 4.646-2.001 0-3.301-1.328-3.808-5.456-2.083-3.364 1.406-3.544 1.38-3.544-.499 0-1.09-.695-2.248-1.545-2.574-1.301-.499-1.221-.819.502-2.026 2.609-1.828 4.655-.775 2.842 1.463-1.078 1.33-1.066 1.463.069.779 5.765-3.472 14.132-1.758 14.132 2.894 0 1.322.675 3.078 1.5 3.903 1.819 1.819 1.923 2.729.274 2.393-.675-.137-1.389.826-1.588 2.141-.299 1.973-.041 2.266 1.476 1.676 2.938-1.143 3.563-1.136 4.001.046.227.612-.955 1.679-2.625 2.371L658 605.243v8.378c0 8.984.557 9.779 4.777 6.822 1.837-1.286 2.235-2.544 2.291-7.25.057-4.809.235-5.346 1.145-3.46.801 1.661 1.656 2.087 3.339 1.665 2.737-.687 6.448 1.118 6.448 3.137 0 1.904 1.475 1.855 4.535-.15 3.254-2.132 3.415-5.787.215-4.887-1.537.432-1.827.339-.916-.293 1.091-.758 1.06-1.032-.167-1.503-1.392-.534-3.207 1.746-2.826 3.548.088.413-.291.75-.841.75s-1-.723-1-1.607c0-1.118-.533-1.404-1.75-.941-1.069.407-1.361.317-.75-.232 6.01-5.403 12.833-2.931 11.844 4.29-.418 3.046-.251 4.49.52 4.49.768 0 1.136 3.075 1.136 9.5 0 5.667-.404 9.5-1 9.5-.55 0-1.007-.562-1.015-1.25-.011-.833-.339-.75-.985.25-1.703 2.636-1.271 15.041.5 14.362.85-.326 1.5-1.816 1.5-3.438 0-2.293.348-2.739 1.75-2.245 1.429.502 1.52.368.5-.732-1.832-1.974-1.525-5.294.615-6.63 2.088-1.304 3.164-15.194 3.18-41.024.004-7.479.43-13.469.981-13.809.614-.38.974 4.592.974 13.457 0 7.732.399 14.059.886 14.059 1.962 0 5.744-2.609 5.377-3.71-.225-.675.486-1.109 1.673-1.02 1.135.086 2.109.622 2.164 1.193.055.57.433-.088.841-1.463.416-1.403.291-3.082-.285-3.826-.722-.932-.653-1.558.232-2.105.982-.606.912-1.126-.314-2.352-1.777-1.777-2.077-3.717-.574-3.717 1.938 0 5.255 4.145 4.178 5.222-1.2 1.2-.385 4.024.927 3.213 1.342-.83 1.077.981-.355 2.424-1.002 1.01-.917 1.133.431.62 1.326-.505 1.767.062 2.09 2.691.225 1.831.481.319.569-3.361.088-3.68.64-6.988 1.227-7.35 1.586-.98 1.781-.445 2.122 5.809.171 3.149.676 5.727 1.122 5.729.445.001.492 3.226.104 7.166-.667 6.776-.603 7.12 1.19 6.371 1.042-.435 2.908-1.011 4.145-1.279 1.237-.269 2.25-.834 2.25-1.258 0-1.098 7.164-4.382 9.25-4.24.962.065 1.75-.539 1.75-1.344 0-.804 1.013-1.894 2.25-2.42 1.237-.527 4.05-2.068 6.25-3.424C748.258 604.02 762.711 596 763.349 596c.298 0 .679 2.129.846 4.731.357 5.533 3.525 7.629 8.265 5.469l2.54-1.157v-15.355c0-17.228-.026-17.143 4.632-15.197 3.768 1.574 9.349-.473 9.362-3.435.006-1.348 1.522.501 7.208 8.795 1.264 1.843 3.086 4.206 4.048 5.25.962 1.044 1.75 2.345 1.75 2.891 0 .545.9 1.553 2 2.24 1.1.687 2 1.754 2 2.371 0 1.228 4.448 7.283 8.591 11.694 2.363 2.516 3.192 2.767 8.268 2.5l5.641-.297.189-35.994c.162-30.66-.027-36.115-1.271-36.812-1.876-1.049-.874-2.694 1.641-2.694 1.068 0 1.941-.48 1.941-1.067 0-.613-.853-.797-2-.433-1.312.416-2 .18-2-.689 0-2.301-5.921-4.279-9.155-3.059-3.937 1.487-7.341.555-5.616-1.538 1.116-1.353 1.003-1.399-.918-.375-1.68.895-2.362.887-2.931-.033-1.118-1.81-.372-11.19.957-12.036.858-.545.835-.743-.087-.755-.687-.008-1.25-.618-1.25-1.355s-1.913-1.892-4.25-2.568a740.967 740.967 0 0 1-7.272-2.142c-3.627-1.098-11.683.687-9.418 2.087.76.47 1.068 1.168.685 1.551s-1.363.144-2.177-.532c-.814-.675-2.02-.895-2.679-.488-.731.452-.936.318-.527-.344.369-.597.145-1.411-.497-1.808-.831-.513-.675-1.082.539-1.97 1.499-1.095 1.088-1.454-3.348-2.927-4.182-1.39-5.056-2.09-5.056-4.053 0-1.856-.996-2.813-4.574-4.396-2.945-1.302-4.316-2.439-3.85-3.192.513-.832-.022-.983-1.855-.523-1.684.423-3.096.127-4.077-.854-.826-.826-2.235-1.501-3.133-1.501-1.472 0-1.566-1.689-.959-17.25l.672-17.25-16.862-6.575c-15.602-6.085-17.032-6.467-19.143-5.115-3.201 2.05-3.263 1.86-3.926-12.181l-.595-12.591-2.599.562c-2.024.437-2.267.326-1.099-.504.825-.586 1.05-1.065.5-1.065-2.431 0-3.05 1.527-1.305 3.219.993.962 1.805 1.3 1.805.75s.45-1 1-1c.573 0 1 3.036 1 7.107 0 5.906-.253 7.01-1.5 6.531-.825-.316-1.5-.139-1.5.393 0 .533-.45.969-1 .969s-1.007-1.238-1.015-2.75c-.009-1.512-.452-3.425-.985-4.25-.704-1.09-.974-1.142-.985-.191-.008.72-.374 1.087-.813.816-.439-.271-1.451-.064-2.25.459-1.235.81-1.185 1.11.332 2.003 1.471.866 1.754 2.271 1.61 7.982-.169 6.707-.535 7.409-3.644 7.006-.708-.092-1.25.914-1.25 2.322 0 1.367-.45 2.763-1 3.103-.621.384-1-1.49-1-4.941 0-4.129-.364-5.559-1.417-5.559-.779 0-1.575-.476-1.769-1.057-.194-.582-1.151-.751-2.128-.376-1.652.634-1.633.782.269 2.114 2.167 1.518 2.844 6.319.89 6.319-.73 0-.592.644.376 1.75 2.037 2.328 2.509 17.171.586 18.391-3.043 1.93-3.807.898-3.807-5.141 0-4.251-.378-6-1.298-6-.981 0-1.237-2.081-1.049-8.544.239-8.249.163-8.575-2.203-9.475-3.152-1.199-3.469-5.902-.45-6.691 1.1-.288 2-.969 2-1.514 0-.544-.638-.745-1.417-.446-1.949.748-2.583-1.411-2.583-8.795 0-5.557-.248-6.366-2.096-6.85-3.011-.787-4.883.204-5.044 2.672-.443 6.772.796 26.649 1.714 27.497.384.355.475-.592.201-2.104-.534-2.951.615-3.781 1.618-1.168 1.4 3.648.666 20.418-.893 20.418-1.301 0-1.996-1.812-1.624-4.232.062-.403-.995-1.011-2.349-1.351-2.38-.597-2.464-.918-2.567-9.767-.058-5.033-.261-12.3-.45-16.15l-.345-7-3.582-.31-3.583-.311.116 5.311c.064 2.92.322 4.522.573 3.56.252-.962.8-1.75 1.218-1.75 1.288 0 .847 3.441-.578 4.5-.997.741-1.398 4.621-1.548 15-.111 7.7-.359 11.817-.551 9.149-.321-4.472-.519-4.798-2.539-4.169a81.652 81.652 0 0 1-4.441 1.217l-2.25.536v-17.616c0-11.078.371-17.617 1-17.617 2.004 0 .934-1.8-1.421-2.391-4.978-1.249-5.667-.105-5.576 9.263.188 19.343.078 21.96-.948 22.594-2.025 1.251-4.059-2.194-3.923-6.645l.131-4.321.737 3.5.737 3.5.259-3c.143-1.65.364-3.988.493-5.196.128-1.208-.38-2.432-1.128-2.719-1.02-.391-1.361-2.977-1.361-10.313 0-8.63-.232-9.936-1.954-11.011-1.23-.768-2.177-.857-2.559-.241-.333.539-1.478.98-2.546.98-1.293 0-1.941.688-1.941 2.059 0 1.132.423 1.798.94 1.478 1.2-.741 1.894 38.72.697 39.592-.475.346-.295.818.4 1.05.966.322 1.011 1.115.192 3.371-.589 1.623-1.107 2.193-1.15 1.267-.043-.925-.936-1.954-1.984-2.287-2.425-.77-3.291-44.517-.881-44.545.943-.012.975-.214.117-.759-.642-.409-1.317-2.266-1.5-4.127-.306-3.123-4.831-6.932-4.831-4.067M653.158 420c0 1.375.227 1.938.504 1.25.278-.687.278-1.812 0-2.5-.277-.687-.504-.125-.504 1.25M668 423.5c0 .825.436 1.5.969 1.5.532 0 .709-.675.393-1.5-.317-.825-.753-1.5-.969-1.5-.216 0-.393.675-.393 1.5m-14.651 7.5c0 4.675.173 6.587.383 4.25.211-2.337.211-6.163 0-8.5-.21-2.337-.383-.425-.383 4.25M711 426c0 .55.45 1 1 1s1-.45 1-1-.45-1-1-1-1 .45-1 1m-29.842 5c0 1.375.227 1.938.504 1.25.278-.687.278-1.812 0-2.5-.277-.687-.504-.125-.504 1.25M704 432.559c0 .857.457 1.276 1.016.931.559-.346.758-1.047.441-1.559-.857-1.387-1.457-1.129-1.457.628M612.5 434c-.34.55.084 1 .941 1s1.559-.45 1.559-1-.423-1-.941-1-1.219.45-1.559 1m64.5.059c0 .582.45.781 1 .441s1-.816 1-1.059-.45-.441-1-.441-1 .477-1 1.059m33 11.441c0 7.667.387 12.5 1 12.5.55 0 1.031-.562 1.069-1.25 1.045-18.908.814-23.75-1.136-23.75-.527 0-.933 5.435-.933 12.5m-41.93-9.75c.165 4.102 1.788 5.847 1.86 2 .038-2.062-.38-3.75-.93-3.75s-.968.788-.93 1.75m36.43.25c-.34.55-.141 1 .441 1s1.059-.45 1.059-1-.198-1-.441-1-.719.45-1.059 1m20.5 0c-.901.582-1.025.975-.309.985.655.008 1.469-.435 1.809-.985.767-1.242.421-1.242-1.5 0m-94.748 7.5c.011 2.2.216 2.982.455 1.738.239-1.244.23-3.044-.02-4s-.446.062-.435 2.262m23.091 4c.003 4.4.179 6.076.39 3.724.212-2.352.209-5.952-.006-8s-.388-.124-.384 4.276m26.815-2.5c0 1.375.227 1.938.504 1.25.278-.687.278-1.812 0-2.5-.277-.687-.504-.125-.504 1.25m26.17 6.5c.005 3.85.185 5.302.402 3.228.216-2.075.213-5.225-.008-7-.221-1.776-.398-.078-.394 3.772m-2.764-4.207c.376.986.935 1.541 1.243 1.233.308-.307.001-1.114-.683-1.793-.988-.98-1.102-.865-.56.56M388.055 464.25a6483.21 6483.21 0 0 1-12.625 29.25l-17.428 40c-31.465 72.22-54.042 123.213-71.835 162.25l-6.04 13.25h54.413l5.909-11.75c3.25-6.462 9.881-19.962 14.734-30l8.826-18.25h59.495c51.663 0 59.496-.193 59.496-1.469 0-1.198-6.662-17.046-13.465-32.031-.749-1.65-4.05-9.3-7.336-17-6.059-14.197-19.828-45.998-37.452-86.5a98594.79 98594.79 0 0 1-16.843-38.745c-6.272-14.435-11.64-26.247-11.929-26.25-.289-.003-3.853 7.757-7.92 17.245M648 456c0 4 .429 7 1 7s1-3 1-7-.429-7-1-7-1 3-1 7m21.3 0c0 3.025.187 4.262.416 2.75.229-1.512.229-3.988 0-5.5s-.416-.275-.416 2.75m34.307-1.418c-.952 2.48-.711 6.418.393 6.418.55 0 1-1.8 1-4 0-4.263-.411-4.977-1.393-2.418M700 461c0 1.1.422 2 .938 2s.87-.9.787-2c-.083-1.1-.505-2-.938-2-.433 0-.787.9-.787 2m10 14.167c0 8.341.168 14.979.374 14.75 1.033-1.15 1.715-29.917.71-29.917-.731 0-1.084 4.941-1.084 15.167m-92.912-6.145c-.168 6.995.035 7.973 1.857 8.948 2.099 1.124 2.431-1.504.755-5.97-1.089-2.901-1.284-8.972-.298-9.301.548-.182.295-.601-.564-.931-1.323-.508-1.589.595-1.75 7.254M640.5 462c.34.55.816 1 1.059 1s.441-.45.441-1-.477-1-1.059-1-.781.45-.441 1m-11.421 1.583c.048 1.165.285 1.402.604.605.289-.722.253-1.585-.079-1.917-.332-.332-.568.258-.525 1.312m77.264 5.917c.003 4.4.179 6.076.39 3.724.212-2.352.209-5.952-.006-8s-.388-.124-.384 4.276M657 464c0 .55.477 1 1.059 1s.781-.45.441-1-.816-1-1.059-1-.441.45-.441 1m7-.607c0 .216.698.661 1.552.989.89.341 1.291.173.941-.393-.587-.951-2.493-1.406-2.493-.596M682.158 465c0 1.375.227 1.938.504 1.25.278-.687.278-1.812 0-2.5-.277-.687-.504-.125-.504 1.25m20.967 4.604c0 3.632-.253 6.857-.562 7.167-.472.471-.994-6.143-.832-10.521.026-.687-.353-1.25-.842-1.25s-.889 5.202-.889 11.559c0 7.753.343 11.347 1.041 10.916.572-.354.767-1.505.432-2.559-.34-1.071-.137-1.916.46-1.916.587 0 1.067 1.827 1.067 4.059 0 2.358.405 3.809.967 3.462 1.228-.759 1.288-27.521.062-27.521-.497 0-.904 2.972-.904 6.604M653.158 466c0 1.375.227 1.938.504 1.25.278-.687.278-1.812 0-2.5-.277-.687-.504-.125-.504 1.25m-17.018 1.727c-1.927 2.197-2.15 3.027-1.216 4.522.629 1.008.877 2.264.551 2.792-.326.527.331.959 1.461.959 1.839 0 2.041-.577 1.928-5.5-.07-3.025-.18-5.492-.246-5.482-.065.01-1.18 1.229-2.478 2.709m53.86-1.786c0 .518.433 1.208.962 1.535.533.33.624 1.581.205 2.809-1.059 3.098-.863 15.693.243 15.607.501-.039 1.311.644 1.8 1.518.489.875 1.767 1.59 2.84 1.59 2.14 0 2.074.374 2.304-13l.146-8.5-3.25.147c-2.187.1-3.25-.309-3.25-1.25 0-.768-.45-1.397-1-1.397s-1 .423-1 .941m-80 1.618c0 .857.45 1.281 1 .941.55-.34 1-1.041 1-1.559s-.45-.941-1-.941-1 .702-1 1.559M626.3 471c0 3.025.187 4.262.416 2.75.229-1.512.229-3.988 0-5.5s-.416-.275-.416 2.75m35.227-3.956c.355.574.141 1.652-.476 2.395-1.746 2.104.861 7.982 2.718 6.126.37-.371.029-1.072-.758-1.558-1.209-.747-1.144-1.203.417-2.927 1.514-1.674 1.62-2.317.588-3.561-1.413-1.702-3.493-2.099-2.489-.475m4.631.956c0 1.375.227 1.938.504 1.25.278-.687.278-1.812 0-2.5-.277-.687-.504-.125-.504 1.25m8.842-1c0 .55.675 1 1.5 1s1.5-.45 1.5-1-.675-1-1.5-1-1.5.45-1.5 1m4.753.75c-.923 1.894-.796 7.25.172 7.25.591 0 1.075-1.8 1.075-4 0-3.791-.434-4.92-1.247-3.25M682.3 474c0 3.025.187 4.262.416 2.75.229-1.512.229-3.988 0-5.5s-.416-.275-.416 2.75m-17.3-2c0 .55.45 1 1 1s1-.45 1-1-.45-1-1-1-1 .45-1 1m14 5.941c0 1.068.45 2.219 1 2.559.567.351 1-.49 1-1.941 0-1.407-.45-2.559-1-2.559s-1 .873-1 1.941m38.079.642c.048 1.165.285 1.402.604.605.289-.722.253-1.585-.079-1.917-.332-.332-.568.258-.525 1.312M719 478c0 .55.45 1 1 1s1-.45 1-1-.45-1-1-1-1 .45-1 1m-12.921 1.583c.048 1.165.285 1.402.604.605.289-.722.253-1.585-.079-1.917-.332-.332-.568.258-.525 1.312m13.636 2.399c-.35 1.337-.467 2.599-.261 2.805.777.777 4.576-1.93 4.005-2.853-.328-.532-.978-.731-1.443-.444-.465.287-1.03-.031-1.255-.708-.226-.677-.696-.137-1.046 1.2M682.232 484c0 1.925.206 2.712.457 1.75.252-.962.252-2.538 0-3.5-.251-.962-.457-.175-.457 1.75m-63.232.576c-2.475 1.367-3.375 2.19-2 1.828 4.498-1.183 10.062-4.528 7.25-4.359-.413.025-2.775 1.164-5.25 2.531m45.441-1.108c-1.907 1.443-1.905 1.469.142 1.5 1.2.019 2.084-.604 2.084-1.468 0-1.822.139-1.82-2.226-.032m41.717.532c0 1.375.227 1.938.504 1.25.278-.687.278-1.812 0-2.5-.277-.687-.504-.125-.504 1.25m67.283-.532c-1.067.808-1.405 1.483-.75 1.5.655.018 1.474-.425 1.819-.984.346-.559 1.047-.758 1.559-.441.512.316.931.098.931-.484 0-1.469-1.269-1.323-3.559.409M631 486.886c0 3.437.393 4.073 3.401 5.5 4.771 2.264 5.599 2.046 5.599-1.476 0-4.852-5.476-8.906-6.294-4.66-.372 1.929-.453 1.858-.57-.5-.211-4.265-2.136-3.241-2.136 1.136m48.487 1.207c-.453 3.293-.309 5.485.406 6.2.809.809 1.107-.561 1.107-5.093 0-7.527-.572-7.946-1.513-1.107m44.263-3.404c-.962.252-1.75.875-1.75 1.384 0 .51-.675.927-1.5.927s-1.5.45-1.5 1c0 1.464 1.637 1.22 3.357-.5.825-.825 1.982-1.5 2.572-1.5.589 0 1.071-.45 1.071-1s-.112-.948-.25-.884c-.138.064-1.038.322-2 .573m-135.684 3.73c-2.672 1.48-3.827 5.959-2.081 8.063 1.316 1.586 6.047-.236 5.347-2.058-.24-.626.937-1.707 2.616-2.402 3.741-1.55 3.797-2.169.345-3.772-3.253-1.51-3.192-1.512-6.227.169M612 488c0 .55.45 1 1 1s1-.45 1-1-.45-1-1-1-1 .45-1 1m103.606 1.584c-.373.973-.15 1.431.581 1.187 1.495-.498 2.318-2.771 1.003-2.771-.537 0-1.249.713-1.584 1.584m-117.102 2.403c-.493 1.552-1.201 1.876-3.072 1.407-1.419-.357-2.432-.174-2.432.439 0 1.494 1.941 2.499 5.542 2.868 2.95.303 3.091.16 2.671-2.703-.548-3.731-1.855-4.701-2.709-2.011M617 490.393c0 .216.675.652 1.5.969.825.316 1.5.139 1.5-.393 0-.533-.675-.969-1.5-.969s-1.5.177-1.5.393m32.168 2.775c-.092 1.468-.441 3.38-.775 4.25-.47 1.225.067 1.582 2.383 1.582 3.134 0 5.244-4.292 3.164-6.433-1.272-1.31-2.19-.099-2.19 2.891 0 3.941-1.582 2.996-2.022-1.208-.266-2.552-.445-2.898-.56-1.082m60.415-1.302c-.431.697-.513 1.537-.183 1.867.895.895 1.871-.421 1.387-1.871-.338-1.016-.574-1.016-1.204.004M656 495.5c0 .917.484 1.505 1.075 1.308.591-.197 1.075-.786 1.075-1.308s-.484-1.111-1.075-1.308c-.591-.197-1.075.391-1.075 1.308m48-.5c-1.293.835-1.266.971.191.985.93.008 1.969-.435 2.309-.985.782-1.266-.542-1.266-2.5 0m-124.387 4.437c-1.588.702-2.488 1.522-2 1.824.488.302 2.463-.29 4.387-1.314 3.926-2.09 2.082-2.483-2.387-.51m74.986-.272c-1.816 1.054-1.794 1.162.5 2.434 3.388 1.877 3.901 1.733 3.901-1.099 0-2.684-1.365-3.098-4.401-1.335m-92.043 2.508-2.943 1.594 3.443 1.678c3.104 1.513 3.765 1.531 6.694.182 4.077-1.878 4.067-2.43-.071-3.926-4.003-1.448-3.516-1.48-7.123.472M675 500.941c0 .518.39 1.182.866 1.476.476.294.636 1.738.355 3.208-.353 1.847-.157 2.454.634 1.965 1.767-1.092 1.463-7.59-.355-7.59-.825 0-1.5.423-1.5.941m6 2.059c0 .55.702 1 1.559 1s1.281-.45.941-1c-.34-.55-1.041-1-1.559-1s-.941.45-.941 1m-96 1.531c0 .808-.395 1.469-.879 1.469-.483 0-1.42 1.462-2.083 3.25-.663 1.788-1.568 3.953-2.012 4.811-.814 1.575 4.939 4.939 8.446 4.939 1.586 0 3.202-2.61 3.095-5-.195-4.369-6.567-13.557-6.567-9.469m-191.242 3.219c-1.438 1.512-2.941 4.1-3.339 5.75-.398 1.65-1.555 4.073-2.571 5.385-1.017 1.312-1.848 3.266-1.848 4.342 0 1.077-.9 3.102-2 4.5-1.1 1.399-2 3.133-2 3.855s-1.125 3.428-2.5 6.014c-1.375 2.586-2.5 5.535-2.5 6.553 0 1.018-.432 1.851-.96 1.851s-1.518 1.913-2.201 4.25c-.683 2.337-1.611 4.507-2.062 4.822-1.237.864-4.777 11.068-4.777 13.772 0 2.101.315 2.288 2.75 1.633 1.512-.407 4.45-1.073 6.529-1.48 2.078-.406 4.553-1.415 5.5-2.241.946-.827 3.396-1.803 5.444-2.17 2.047-.366 4.072-1.255 4.5-1.975.427-.719 2.576-1.591 4.774-1.936 2.198-.346 4.485-1.297 5.082-2.113.597-.817 2.991-1.789 5.32-2.162 2.329-.372 4.777-1.219 5.439-1.881.662-.662 2.206-1.74 3.433-2.396 2.885-1.544 3.002-6.87.229-10.396-1.1-1.398-2-3.423-2-4.5 0-1.076-.831-3.03-1.848-4.342-1.016-1.312-2.176-3.735-2.577-5.385-.402-1.65-1.329-3.675-2.06-4.5-.731-.825-1.838-3.413-2.461-5.75-.622-2.337-1.495-4.25-1.941-4.25-.445 0-1.517-1.8-2.381-4-1.851-4.711-3.415-4.992-6.974-1.25m279.4-.75c0 1.375.227 1.938.504 1.25.278-.687.278-1.812 0-2.5-.277-.687-.504-.125-.504 1.25m-113.362 1.714c.241 1.257 1.06 2.286 1.821 2.286.774 0 1.383-1.006 1.383-2.286 0-1.544-.591-2.285-1.82-2.285-1.357 0-1.71.581-1.384 2.285m120.506-.636c-.66 1.332-1.395 3.322-1.634 4.422-.317 1.453-.468 1.248-.552-.75-.064-1.512-.539-2.75-1.057-2.75-1.42 0-2.227 1.778-1.119 2.463.535.331.699 1.314.364 2.186-.502 1.309-.855 1.173-2.025-.782-.779-1.302-1.175-1.579-.879-.617.295.962.101 1.75-.431 1.75-.533 0-1.005 1.013-1.048 2.25-.049 1.397-.268 1.682-.579.75-1.456-4.364-1.617-4.5-2.38-2l-.763 2.5-.099-2.691c-.117-3.15-1.624-4.492-2.495-2.221-1.334 3.475-.681 12.379.863 11.786.808-.31 1.43-.859 1.382-1.219-.376-2.839.279-5.499 1.054-4.277.48.758 1.373 1.069 1.984.691.745-.46 1.112.631 1.112 3.305 0 3.107.441 4.131 1.991 4.623 2.333.741 4.009-.071 4.009-1.94 0-.939 1.251-1.24 4.294-1.035 5.136.346 6.276-2.447 2.114-5.174-2.857-1.872-2.54-3.024.399-1.451 1.733.927 1.961.753 1.836-1.407-.079-1.357-.729-2.692-1.445-2.967-.716-.275-1.027-.055-.691.488.336.544-.091.989-.948.989-1.766 0-1.942-.846-.615-2.943.745-1.179 1.395-1.224 3.541-.246 1.445.659 2.37 1.614 2.055 2.124-1.135 1.837 1.626 2.221 2.98.415 1.544-2.059-.722-4.87-3.168-3.932-.663.255-1.748-.191-2.412-.99-.876-1.056-1.557-1.161-2.495-.382-.981.814-1.369.535-1.618-1.159l-.327-2.23-1.198 2.421M789 510.107c0 .609.625.867 1.389.574 1.016-.39 1.352.292 1.25 2.536-.076 1.689.37 3.25.991 3.47 1.514.536 2.447-5.97.993-6.922-1.711-1.119-4.623-.904-4.623.342m-250.357 1.521-2.857 1.548 2.748 1.426c2.24 1.162 3.369 1.201 6.107.211 4.867-1.76 4.185-3.284-1.38-3.083-.682.024-.993-.355-.691-.843.802-1.298-.679-1.019-3.927.741m18.266.606c-.826.826-2.519 1.825-3.761 2.219l-2.258.717 2.104 1.825c2.322 2.014 1.217 3.524-1.864 2.546-2.83-.898-6.422 2.494-4.84 4.57 1.545 2.028 5.71.755 5.71-1.745 0-.935.263-1.437.583-1.116.321.321 1.491-.324 2.6-1.433 1.467-1.467 2.317-1.717 3.117-.917 1.541 1.541 2.7 1.369 2.7-.4 0-.825.45-1.5 1-1.5s1-.9 1-2c0-1.304-.667-2-1.917-2-1.054 0-2.086-.51-2.294-1.134-.255-.763-.869-.643-1.88.368M539.5 513c.34.55.816 1 1.059 1s.441-.45.441-1-.477-1-1.059-1-.781.45-.441 1m260.398 1.75c-.056 1.513-.168 4.325-.25 6.25-.081 1.925.272 3.616.784 3.758.513.143 1.069-2.67 1.235-6.25.176-3.806-.107-6.508-.683-6.508-.541 0-1.03 1.237-1.086 2.75m-104.222-.976c-.453.701-.564 2.726-.245 4.5.538 3 .503 3.051-.495.726-.945-2.2-1.216-2.309-2.255-.912-.65.873-1.743 1.398-2.431 1.166-2.833-.954-.987.958 2.218 2.297 4.367 1.825 4.532 1.815 4.532-.274 0-1.41.284-1.316 1.568.517.863 1.232 1.988 1.98 2.5 1.664.513-.317.932.174.932 1.09 0 .931.551 1.447 1.25 1.169 11.496-4.574 11.527-4.612 5.74-7.222-4.314-1.945-6.552-1.358-3.455.907 1.613 1.179 1.692 1.619.542 3.006-1.217 1.466-1.48 1.37-2.707-.996-.748-1.441-1.079-3.074-.737-3.628.673-1.087-1.352-2.744-3.383-2.769-1.889-.023-1.498 1.774.5 2.296 1.356.354 1.258.483-.434.573-1.674.089-2.257-.525-2.5-2.634-.215-1.87-.58-2.342-1.14-1.476M678 516.5c0 .867.595 1.209 1.5.862.825-.317 1.5-.705 1.5-.862 0-.157-.675-.545-1.5-.862-.905-.347-1.5-.005-1.5.862m108 1.559c0 .582.45.781 1 .441s1-.816 1-1.059-.45-.441-1-.441-1 .477-1 1.059m3 .524c0 .871.534 1.406 1.188 1.188 1.854-.618 2.161-2.771.395-2.771-.871 0-1.583.712-1.583 1.583m-268.366 1.05c-2.571 1.393-2.803 1.928-2.261 5.21.333 2.011.61 5.967.616 8.79.012 5.832 3.334 8.69 4.289 3.691.324-1.695.078-2.291-.807-1.951-1.95.748-1.125-2.072 1.196-4.085 1.558-1.351 1.942-2.598 1.573-5.107-.386-2.629-.024-3.644 1.738-4.878 4.227-2.961-1.283-4.412-6.344-1.67m270.616.587c-2.009.969-2.25 1.82-2.25 7.933 0 6.734.776 8.083 3.5 6.082.835-.614 2.064-15.373 1.263-15.167-.145.037-1.276.556-2.513 1.152m-256.217 1.508c-1.311 1.476-1.275 1.579.332.962.989-.379 1.987-.69 2.217-.69.23 0 .418-.45.418-1 0-1.471-1.297-1.153-2.967.728m248.967.737c0 2.314.768 2.958 2.728 2.285 1.515-.52 1.023-2.813-.815-3.796-1.65-.884-1.913-.676-1.913 1.511m-96 2.094c0 1.451.433 2.292 1 1.941 1.341-.829 1.279.821-.082 2.182-1.693 1.693.963 5.073 5.849 7.443 2.347 1.138 4.758 2.987 5.357 4.108.6 1.12 1.38 1.639 1.733 1.152.354-.487 2.282-.917 4.285-.956 3.017-.058 3.415.156 2.321 1.25-.726.727-2.027 1.321-2.892 1.321-2.251 0-1.937 2.763.679 5.967 1.237 1.515 2.925 3.774 3.75 5.019 2.835 4.279 4.829 6.513 5.35 5.995.287-.286.663-8.949.836-19.251.358-21.348.744-20.585-7.991-15.769l-5.304 2.924-6.357-2.943c-7.761-3.592-8.534-3.627-8.534-.383M530 524c0 .55.423 1 .941 1s1.219-.45 1.559-1c.34-.55-.084-1-.941-1s-1.559.45-1.559 1m26-.059c0 .518.45 1.219 1 1.559.55.34 1-.084 1-.941s-.45-1.559-1-1.559-1 .423-1 .941m151.013 4.03c-1.169.739-1.009.904.75.772 1.23-.093 2.237-.523 2.237-.956 0-1.043-1.159-.972-2.987.184m91.987.612c0 .871.534 1.406 1.188 1.188 1.854-.618 2.161-2.771.395-2.771-.871 0-1.583.712-1.583 1.583m12-1.19c0 .216.698.661 1.552.989.89.341 1.291.173.941-.393-.587-.951-2.493-1.406-2.493-.596m-34.921 2.19c.048 1.165.285 1.402.604.605.289-.722.253-1.585-.079-1.917-.332-.332-.568.258-.525 1.312m7.696-1.025c-.998.998.421 4.442 1.83 4.442.853 0 1.294-.947 1.166-2.5-.191-2.31-1.67-3.268-2.996-1.942M810 530c0 .55.477 1 1.059 1s.781-.45.441-1-.816-1-1.059-1-.441.45-.441 1m5.5 1c-.34.55.084 1 .941 1s1.559-.45 1.559-1-.423-1-.941-1-1.219.45-1.559 1m-239 1c-.34.55-.141 1 .441 1s1.059-.45 1.059-1-.198-1-.441-1-.719.45-1.059 1m231.433 1.581c-1.034 1.245-1.058 1.989-.114 3.5 1.036 1.66.918 1.919-.87 1.919-1.137 0-1.789.45-1.449 1 .34.55.179 1-.358 1-.536 0-1.202-.562-1.48-1.25-.317-.785-.533-.831-.583-.122-.043.62.596 1.687 1.421 2.372 1.036.86 1.5.898 1.5.122 0-.617.9-1.122 2-1.122s2 .45 2 1-.695 1-1.544 1c-.849 0-1.471.563-1.381 1.25.421 3.246-.102 5.256-1 3.838-.755-1.194-1.15-1.156-2.554.248-.914.914-2.754 1.935-4.091 2.271-2.197.551-2.43 1.126-2.43 6.001 0 3.015.452 5.392 1.025 5.392.563 0 1.465 1.013 2.004 2.25.538 1.237 2.55 4.275 4.471 6.75 1.921 2.475 3.933 5.513 4.471 6.75.539 1.237 1.368 2.25 1.844 2.25.475 0 1.396 1.013 2.046 2.25.65 1.237 2.311 3.799 3.69 5.692l2.509 3.442-.114-24.701c-.111-24.257-.152-24.723-2.28-25.856-3.185-1.696-4.788-4.128-3.331-5.055.746-.475.497-.747-.692-.757-1.237-.01-1.665-.516-1.281-1.515.768-2.003-1.749-1.944-3.429.081M547 534.941c0 1.132.45 2.059 1 2.059s1-.648 1-1.441-.45-1.719-1-2.059c-.55-.34-1 .309-1 1.441m254.576-.287c1.78 1.852 4.424 2.094 4.424.406 0-.4-.562-.748-1.25-.774-.687-.026-2.116-.405-3.174-.84-1.898-.783-1.898-.767 0 1.208m-92.826.035c-2.354.616-2.232 2.311.167 2.311 1.054 0 2.123.563 2.375 1.25.353.964.746.979 1.716.067.692-.65.987-1.888.656-2.75-.6-1.563-1.604-1.743-4.914-.878M683 538.5c0 .825.436 1.5.969 1.5.532 0 .709-.675.393-1.5-.317-.825-.753-1.5-.969-1.5-.216 0-.393.675-.393 1.5M547.158 541c0 1.375.227 1.938.504 1.25.278-.687.278-1.812 0-2.5-.277-.687-.504-.125-.504 1.25m263.252-.373c.344.894.112 2.244-.515 3-.855 1.029-.851 1.373.015 1.373 1.263 0 3.123-4.045 2.414-5.25-.87-1.476-2.525-.717-1.914.877m-126.9 3.389c.346.559 1.047.758 1.559.441 1.387-.857 1.129-1.457-.628-1.457-.857 0-1.276.457-.931 1.016m106.685 2.484c.02 1.65.244 2.204.498 1.231.254-.973.237-2.323-.037-3-.274-.677-.481.119-.461 1.769M610 546.924c0 .474.675 1.121 1.5 1.438.825.316 1.5.187 1.5-.286 0-.474-.675-1.121-1.5-1.438-.825-.316-1.5-.187-1.5.286m73.16 1.201c-.088 1.444-.417 3.919-.731 5.5-.611 3.071 4.62 7.723 6.061 5.391.346-.559.307-1.016-.086-1.016s.083-.88 1.056-1.956c2.173-2.401-.154-5.619-3.441-4.759-1.528.399-1.987-.127-2.304-2.643-.343-2.731-.416-2.799-.555-.517M729.5 550c-.34.55-.141 1 .441 1s1.059-.45 1.059-1-.198-1-.441-1-.719.45-1.059 1M573 553.107c0 .641-.736.827-1.75.441-1.261-.48-1.448-.362-.667.426.595.6 1.833.804 2.75.452 1.811-.695 2.287-2.426.667-2.426-.55 0-1 .498-1 1.107m119.251 2.391c.137 1.924.572 3.499.968 3.5.395.001.459.677.143 1.502-.775 2.018-2.1 1.896-2.723-.25-.294-1.011-.43-.694-.324.75.112 1.518.802 2.507 1.754 2.517.864.009 2.753.791 4.198 1.738 5.108 3.347 7.604-1.532 2.59-5.062-1.022-.718-1.872-1.843-1.89-2.5-.036-1.294-3.418-5.693-4.377-5.693-.324 0-.477 1.574-.339 3.498m52.042-.943-2.207 2.518 3.457 1.649c1.901.907 3.457 2.015 3.457 2.463 0 .448.858.815 1.906.815 1.411 0 1.771.517 1.387 1.988-.334 1.275.074 2.216 1.137 2.623 2.426.932 2.869.031 3.21-6.533l.309-5.923-5.024-1.078c-2.763-.592-5.114-1.069-5.224-1.059-.111.01-1.194 1.152-2.408 2.537M586 553.409c0 .19.675.906 1.5 1.591.865.718 1.5.815 1.5.229 0-.558-.675-1.274-1.5-1.591-.825-.316-1.5-.419-1.5-.229M614.158 555c0 1.375.227 1.938.504 1.25.278-.687.278-1.812 0-2.5-.277-.687-.504-.125-.504 1.25m63.536-.361c-.799.799.104 2.361 1.365 2.361.518 0 .941-.675.941-1.5 0-1.546-1.18-1.987-2.306-.861M415 556.5c-.685.825-2.294 1.5-3.575 1.5-2.684 0-7.425 1.962-7.425 3.073 0 .413-1.831 1.061-4.07 1.439-2.238.378-4.298 1.284-4.578 2.013-.28.729-2.248 1.619-4.373 1.979-2.125.359-4.371 1.263-4.991 2.01-.619.747-2.558 1.668-4.307 2.047-1.75.379-4.756 1.516-6.681 2.526-1.925 1.01-4.691 2.076-6.148 2.368-3.995.802-7.283 6.411-5.144 8.775.881.973 2.432 1.77 3.447 1.77 1.015 0 1.845.473 1.845 1.051s1.688 1.752 3.75 2.608c2.063.856 4.11 2.183 4.55 2.949.44.765 1.383 1.392 2.097 1.392.713 0 2.349.912 3.634 2.027 1.286 1.115 3.38 2.289 4.653 2.609 1.274.319 2.316 1.005 2.316 1.524 0 .519 1.35 1.415 3 1.99s3 1.403 3 1.839c0 .437 1.713 1.479 3.807 2.317 2.093.838 4.398 2.237 5.122 3.109.724.872 1.904 1.585 2.622 1.585s1.948.642 2.732 1.426c.784.784 2.954 2.125 4.821 2.98 4.035 1.846 6.396 3.313 10.215 6.344 1.559 1.237 3.652 2.25 4.651 2.25.999 0 2.078.682 2.397 1.515.32.833 1.606 1.99 2.857 2.569 3.628 1.681 8.629 4.549 10.186 5.841 2.957 2.454 11.665 5.044 12.207 3.631.605-1.578-2.413-11.445-4.148-13.556-.678-.825-1.558-2.625-1.955-4s-1.282-3.4-1.967-4.5c-.684-1.1-1.785-3.652-2.447-5.67-.661-2.019-1.854-4.211-2.651-4.872-.797-.662-1.452-2.16-1.456-3.33-.003-1.171-.9-3.478-1.993-5.128s-1.99-3.788-1.993-4.75c-.004-.962-.882-2.625-1.951-3.694-1.07-1.07-2.242-3.529-2.605-5.465s-1.259-4.017-1.991-4.624c-.732-.608-1.644-2.537-2.026-4.286-.382-1.75-1.536-4.254-2.564-5.566-1.029-1.312-1.87-3.087-1.87-3.946 0-5.623-8.044-11.231-11-7.669m333.638 0c.317.825 1.189 1.5 1.938 1.5.799 0 1.124-.619.786-1.5-.317-.825-1.189-1.5-1.938-1.5-.799 0-1.124.619-.786 1.5M753 558c0 .55.477 1 1.059 1s.781-.45.441-1-.816-1-1.059-1-.441.45-.441 1m-139.213 4c-.242 1.65-.069 3 .386 3s.827-1.35.827-3-.174-3-.387-3c-.212 0-.584 1.35-.826 3m-29.037-.339c-4.679 2.464-4.131 12.31.816 14.669 3.231 1.541 3.867 1.558 6.76.186 3.212-1.525 6.601-5.516 4.682-5.516-.554 0-1.008-1.602-1.008-3.559 0-2.118.405-3.309 1-2.941.55.34 1 .184 1-.347 0-.858-8.482-4.315-9.928-4.047-.315.058-1.809.758-3.322 1.555M761 563c0 .55.477 1 1.059 1s.781-.45.441-1-.816-1-1.059-1-.441.45-.441 1m-114 5.378c0 4.344.343 5.622 1.508 5.622 1.943 0 1.8-8.499-.171-10.135-1.089-.904-1.337-.068-1.337 4.513m19-3.819c0 .857.45 1.281 1 .941.55-.34 1-1.041 1-1.559s-.45-.941-1-.941-1 .702-1 1.559m83 3.384c0 3.99-.434 5.249-2.25 6.528-1.91 1.346-2.023 1.73-.75 2.542 3.21 2.046 3.839 1.064 4.171-6.515.181-4.127-.008-7.502-.421-7.5-.413.001-.75 2.226-.75 4.945m12-1.11c0 1.192.41 2.167.912 2.167 1.016 0 .864-2.557-.216-3.638-.383-.382-.696.28-.696 1.471m-162-.44c0 .216.698.661 1.552.989.89.341 1.291.173.941-.393-.587-.951-2.493-1.406-2.493-.596m3.5 2.607c-.34.55-.168 1 .382 1s1.278-.45 1.618-1c.34-.55.168-1-.382-1s-1.278.45-1.618 1m96.167-.333c-.987.986-.81 5.333.216 5.333.782 0 2.066-3.207 2.103-5.25.017-.93-1.421-.981-2.319-.083M734 570c0 1.867.267 2.133 1.2 1.2.933-.933.933-1.467 0-2.4-.933-.933-1.2-.667-1.2 1.2m-32 .583c0 .871.534 1.406 1.188 1.188 1.854-.618 2.161-2.771.395-2.771-.871 0-1.583.712-1.583 1.583m37.985.667c-.012 1.777-.211 1.941-.946.779-.512-.809-1.279-1.122-1.706-.696-1.038 1.038 1.632 2.617 3.326 1.967 1.546-.593 1.84-4.3.341-4.3-.55 0-1.007 1.013-1.015 2.25m-56.58 1.137c-.85 2.215.315 4.904 1.742 4.022.696-.43.893-.283.491.367-.955 1.546.685 2.282 2.41 1.082 1.103-.768 1.152-1.132.202-1.517-.687-.279-1.25-1.09-1.25-1.802 0-2.303-2.876-4.025-3.595-2.152M703.5 573c-.34.55-.168 1 .382 1s1.278-.45 1.618-1c.34-.55.168-1-.382-1s-1.278.45-1.618 1m-39.5.514c0 .282.52 1.52 1.155 2.75.636 1.23 1.482 2.911 1.881 3.736.399.825 1.638 1.469 2.752 1.431 1.704-.059 1.887.293 1.156 2.216-.624 1.641-.431 2.724.686 3.84.854.855 1.881 2.782 2.281 4.284.459 1.724 2.173 3.543 4.658 4.94 2.162 1.215 4.224 3.24 4.581 4.5.481 1.692.677 1.209.75-1.854.072-2.978-.36-4.32-1.536-4.771-1.515-.581-1.515-.762 0-2.436 3.101-3.427 1.537-9.15-2.501-9.15-1.21 0-1.859.986-2.14 3.25-.31 2.498-.44 2.151-.563-1.5-.112-3.329.232-4.75 1.149-4.75.72 0 2.151-.616 3.18-1.368 2.827-2.067-1.625-4.432-4.972-2.641-1.852.991-2.931.838-6.335-.898-4.019-2.051-6.182-2.603-6.182-1.579m43.259 5.145c-.956.386-.919.824.161 1.904.853.853 1.151 2.289.761 3.669l-.64 2.268-.348-2.308c-.191-1.269-.875-2.122-1.52-1.896-.645.226-1.72-.536-2.388-1.693-1.055-1.827-1.219-1.33-1.25 3.787-.036 6.103 1.392 8.506 5.098 8.578 1.958.038 2.455-1.628 2.748-9.218.216-5.605-.053-6.129-2.622-5.091M674 580c-1.282.828-1.246.972.25.985.962.008 1.75-.435 1.75-.985 0-1.22-.113-1.22-2 0m-28.5 1c.34.55.816 1 1.059 1s.441-.45.441-1-.477-1-1.059-1-.781.45-.441 1m54.225 4.391c-.728 5.533-.451 7.669.828 6.389.305-.304.417-3.192.25-6.417l-.303-5.863-.775 5.891M674.5 587c.34.55.816 1 1.059 1s.441-.45.441-1-.477-1-1.059-1-.781.45-.441 1m-318.21 3c-.288 1.1-.903 2-1.366 2-.464 0-1.408 1.913-2.098 4.25-.69 2.337-1.832 4.844-2.538 5.57-.707.726-1.537 2.526-1.846 4-.309 1.474-.988 3.355-1.509 4.18-.521.825-1.432 2.625-2.023 4-.592 1.375-1.873 4.075-2.847 6-.974 1.925-2.071 4.737-2.436 6.25-.366 1.513-1.107 2.75-1.646 2.75-.54 0-.981 2.475-.981 5.5 0 6.119.399 6.362 5.739 3.5 2.052-1.1 4.342-2 5.088-2 .747 0 2.502-.9 3.9-2 1.399-1.1 3.546-2 4.773-2 1.227 0 3.374-.9 4.773-2 1.398-1.1 3.423-2 4.5-2 1.076 0 3.03-.841 4.342-1.87 1.312-1.028 3.878-2.195 5.703-2.594 1.824-.399 3.547-1.324 3.828-2.056.281-.732 2.273-1.628 4.427-1.992 2.154-.364 4.199-1.119 4.544-1.677.345-.558 2.167-1.658 4.049-2.445 7.894-3.298 4.952-7.961-9.348-14.811-1.75-.839-3.468-1.988-3.818-2.555-.35-.567-2.068-1.711-3.818-2.542-4.581-2.176-7.41-3.902-9.504-5.797-2.706-2.449-9.217-2.226-9.888.339m279.664 2.086c-1.281 2.393-1.04 2.82 1.911 3.388 1.789.345 2.135-.065 2.135-2.531 0-3.496-2.365-3.997-4.046-.857M699 594.441c0 .793.45 1.719 1 2.059.55.34 1-.309 1-1.441 0-1.132-.45-2.059-1-2.059s-1 .648-1 1.441M613 597c-1.282.828-1.246.972.25.985.962.008 1.75-.435 1.75-.985 0-1.22-.113-1.22-2 0m86.531 2.293c-.428.986-.497 2.074-.155 2.417 1.016 1.015 1.835-.411 1.367-2.382-.414-1.747-.468-1.748-1.212-.035m-93.351 1.791c-.738 1.182-1.924 1.844-2.741 1.531-.979-.376-1.439.14-1.439 1.616 0 1.687.267 1.902 1.2.969.66-.66 2.037-1.2 3.059-1.2 1.022 0 1.581-.45 1.241-1-.34-.55-.141-1 .441-1s1.059-.675 1.059-1.5c0-2.126-1.295-1.858-2.82.584m-1.787 6.498c.334.87.607 1.756.607 1.968 0 .213.663.133 1.474-.179 1.265-.485 1.276-.764.072-1.968-1.866-1.866-2.905-1.78-2.153.179m56.607-.7c0 .55.45 1.278 1 1.618.55.34 1 .168 1-.382s-.45-1.278-1-1.618c-.55-.34-1-.168-1 .382m44.981.641c-1.057 1.273-.995 1.42.378.893.902-.347 1.641-1.032 1.641-1.523 0-1.286-.579-1.105-2.019.63m-96.981.536c0 .582.515.741 1.145.351.795-.491.985.132.621 2.035-.473 2.471-.372 2.59 1.019 1.199 1.27-1.271 1.316-1.818.257-3.094-1.482-1.785-3.042-2.037-3.042-.491m91.708 1.259c-.252.656.115 1.728.815 2.381.997.932 1.379.782 1.764-.69.539-2.059-1.839-3.618-2.579-1.691M618.5 610c.34.55.816 1 1.059 1s.441-.45.441-1-.477-1-1.059-1-.781.45-.441 1m-4.352 2.53c.208 1.082 1.175 1.967 2.149 1.968.973.001 2.198.677 2.721 1.502.542.855.958.998.967.332.028-2.185-1.191-4.323-2.134-3.74-.516.319-1.646-.007-2.51-.724-1.347-1.118-1.518-1.023-1.193.662m54.395 1.401c-.317.512-.118 1.213.441 1.559.559.345 1.016-.074 1.016-.931 0-1.757-.6-2.015-1.457-.628M696 615c0 .55.45 1 1 1s1-.45 1-1-.45-1-1-1-1 .45-1 1m-72 3.393c0 1.899 2.708 2.809 3.354 1.127.286-.745-.164-1.617-.999-1.937-2.149-.825-2.355-.754-2.355.81m82 5.142c0 4.811-.298 5.73-2 6.175-1.1.288-2 .937-2 1.442 0 .509.888.443 1.99-.147 1.947-1.042 1.979-.811 1.474 10.444-.451 10.043-.323 11.434 1.009 10.923 1.21-.464 1.527-2.421 1.527-9.42 0-5.119.444-9.108 1.055-9.486.726-.449.96 3.588.75 12.942-.168 7.478.032 13.595.445 13.594.413-.001.803-6.415.868-14.252.069-8.244.424-12.985.843-11.25.509 2.108.918 2.554 1.375 1.5.818-1.885 1.476-12.075.888-13.75-.661-1.886-2.224-1.499-2.224.55 0 1.855-1.787 4.2-3.2 4.2-.44 0-.8-1.773-.8-3.941s-.45-4.219-1-4.559c-.622-.384-1 1.521-1 5.035m-50.306 4.104c-.352.352-.336 1.131.035 1.731.371.6.556 4.812.411 9.361-.17 5.332.114 8.269.798 8.269.678 0 1.062-3.612 1.062-10 0-9.121-.503-11.164-2.306-9.361m53.506.561c-1.456 1.456-1.58 3.8-.2 3.8.55 0 1-.477 1-1.059s.45-.781 1-.441 1-.309 1-1.441c0-2.321-1.024-2.635-2.8-.859m-38.2 5.769c0 3.885.31 4.849 1.423 4.422 1.936-.743 2.4-2.299 1.831-6.141-.799-5.396-3.254-4.099-3.254 1.719m30.441 2.499c-1.067.808-1.434 1.483-.813 1.5.62.018 1.687-.643 2.372-1.468 1.581-1.905.935-1.918-1.559-.032m-66.566-.135A35.584 35.584 0 0 1 634.5 638c-.138.55-.306 2.827-.375 5.059-.086 2.791-.486 3.836-1.28 3.346-.716-.443-.883-.275-.439.443 1.826 2.954 4.412-.665 3.957-5.536-.395-4.228-1.153-6.765-1.488-4.979m17.465 5.222c-.328.856-.115 2.543.474 3.75.944 1.936 1.048 1.752.878-1.553-.211-4.124-.458-4.525-1.352-2.197m18.16.445c-.34.55-.141 1 .441 1s1.059-.45 1.059-1-.198-1-.441-1-.719.45-1.059 1m-14.5 8.059c0 .582.45.781 1 .441s1-.816 1-1.059-.45-.441-1-.441-1 .477-1 1.059m-3.541 2.008c-1.076 1.741.149 2.11 1.521.457.789-.95.865-1.524.201-1.524-.584 0-1.36.48-1.722 1.067M643.5 656c-.34.55-.141 1 .441 1s1.059-.45 1.059-1-.198-1-.441-1-.719.45-1.059 1m-.941 23.532c-1.068.807-1.46 1.468-.873 1.468.588 0 1.629-.675 2.314-1.5 1.557-1.876 1.067-1.866-1.441.032" fill-rule="evenodd"/>
</svg>